PathFileType	4	(X/Y/Z)	6_2_5_p0_0-446_filt_butterworth.trc
DataRate	CameraRate	NumFrames	NumMarkers	Units	OrigDataRate	OrigDataStartFrame	OrigNumFrames
60.0	60.0	5	27	m	60.0	390	446
Frame#	Time	RHip			RKnee			RAnkle			RBigToe			RSmallToe			RHeel			LHip			LKnee			LAnkle			LBigToe			LSmallToe			LHeel			Neck			Head			Nose			RShoulder			RElbow			RWrist			RThumb			RIndex			RPinky			LShoulder			LElbow			LWrist			LThumb			LIndex			LPinky			
		X1	Y1	Z1	X2	Y2	Z2	X3	Y3	Z3	X4	Y4	Z4	X5	Y5	Z5	X6	Y6	Z6	X7	Y7	Z7	X8	Y8	Z8	X9	Y9	Z9	X10	Y10	Z10	X11	Y11	Z11	X12	Y12	Z12	X13	Y13	Z13	X14	Y14	Z14	X15	Y15	Z15	X16	Y16	Z16	X17	Y17	Z17	X18	Y18	Z18	X19	Y19	Z19	X20	Y20	Z20	X21	Y21	Z21	X22	Y22	Z22	X23	Y23	Z23	X24	Y24	Z24	X25	Y25	Z25	X26	Y26	Z26	X27	Y27	Z27	
390	6.5	0.25764909002264486	0.4654011130659944	0.7251339506693035	0.26731016237962407	0.5145883582859472	1.0990838416287523	0.2653595007291588	0.5794013604438524	1.5121665699265747	0.26827077509688635	0.3400011594177994	1.4899843996928763	0.3209694251619227	0.4079741408181076	1.5186843814292894	0.2592870925947727	0.609434602434335	1.5614886690891967	0.03865159707255289	0.4556281130236118	0.7330472977863999	0.06603336087009867	0.4937481780013806	1.101437015581221	0.10799337305157225	0.5472823668580721	1.497981226358583	0.11597886731654533	0.39723003090788356	1.542968620455514	0.0626280354374133	0.40261880309291675	1.5194271905331105	0.11638605185228015	0.6142295799400636	1.5693168801783188	0.10890848656763048	0.4606575403475159	0.05335074502650175	0.0931636439219104	0.5036145653785622	-0.18923070048891433	0.11048060281075935	0.36775937375325857	-0.10327600451530858	0.2945467118730529	0.46728470868926575	0.16259658389831322	0.3465568327075106	0.45937561779398695	0.44951783922606936	0.33253657737255776	0.36950381425406775	0.6896636077906602	0.24277222043402963	0.3936516470731566	0.810048244484878	0.28119434078691957	0.39389048008801847	0.8267812004479572	0.323547413753255	0.37727738282515666	0.819286150074004	-0.038244293456492835	0.4608001563521399	0.18224474848086433	-0.09262815883658555	0.42499171189899204	0.462493044222663	-0.0340142455466963	0.3527286766850462	0.6890889063301939	0.026202428366779176	0.3932683893852585	0.7847133022256394	0.01692143118715035	0.34005560363815734	0.794129484091397	-0.01486305545454839	0.36770393462142237	0.8140314497382569
391	6.516666666666667	0.25767185636841694	0.46540615376272826	0.7251268046440725	0.26730510613050595	0.5145355882409631	1.0990683033155233	0.26535727197468967	0.5794516307780689	1.5121821371446509	0.26825974448397694	0.34009308976615754	1.4901200549782798	0.32209229975210035	0.4109955190423725	1.5199132867732394	0.259262793161584	0.6095990860033847	1.5615035162469508	0.038653338470463885	0.4556240741678852	0.7330237011403816	0.06713109638871817	0.49437963708182053	1.1016027262252808	0.1080197083933535	0.5472897201621797	1.4979379337457546	0.11575399428879052	0.3975650688614142	1.5426890429292184	0.06263569232714	0.4026902156602736	1.5194621604253342	0.11796873605051639	0.609327082923692	1.5663775789024381	0.1088998860510787	0.4606586663500084	0.05335548943932426	0.09461564704850624	0.4991273986533135	-0.18938130541207823	0.110486204312708	0.36774556554053933	-0.10330223846944211	0.29454912554740853	0.4672962894440352	0.16258403554280454	0.34655907444016004	0.45938158491869313	0.4495005982788486	0.3325653127985472	0.3695200577038981	0.6896216177640031	0.2428230994503099	0.39366910078832446	0.8099397072251379	0.281103411962642	0.3939113854085549	0.8268052895040048	0.32353426166870136	0.37728684484242303	0.8192742414436789	-0.038229381686404905	0.46079097981161643	0.18222264411748929	-0.09263117557519752	0.42500184074053327	0.46249599754298054	-0.03410212785791249	0.3528971753438952	0.6875888420603081	0.026215125585650062	0.393301711797115	0.7846598808697545	0.01689323029344281	0.3400822430841603	0.7940439407686135	-0.014890301352276487	0.36768648445982577	0.8139393353022772
392	6.533333333333333	0.2576881075620439	0.4654183516188924	0.7251162519165328	0.2673073356487749	0.5144504390401826	1.0990572506842158	0.26535393181798506	0.5795215851119548	1.5122524032507754	0.2686532852894116	0.34163739941520277	1.4910543242021417	0.3236141359408239	0.41486870808750753	1.5227435415257338	0.2592259934952096	0.6098197288157587	1.5615681472999972	0.03865548362846665	0.45564099281514187	0.7330097386119973	0.06756642281298332	0.4946341955146117	1.1016655703204163	0.10805118937944386	0.5473197381340897	1.497850106802075	0.11556940977120275	0.39788755830900296	1.5440543997873306	0.0626850180633446	0.402885595840509	1.5195928971990553	0.11862863407166706	0.6072790209170593	1.5651587734877188	0.10879822272145578	0.4606170173101002	0.05336386024559278	0.09566803250800786	0.4955839353604012	-0.1895830009875941	0.11049169841924537	0.36773011347491236	-0.1033038685470165	0.29454682754568323	0.46732508735649275	0.16256649287156982	0.34658458835445005	0.4594307018143994	0.44957021519490914	0.3327122089023613	0.36949921027898974	0.6893632275817939	0.24336501950165057	0.3937386968504162	0.8095588652487451	0.2811177661237379	0.3939029625058029	0.8268042213613536	0.3235219966076905	0.37728733033818773	0.8192582860138237	-0.03822666919767129	0.46079776643134496	0.18220580752844895	-0.09262974088101616	0.4250251271270535	0.4624934679185207	-0.03415704125602189	0.3530577893573388	0.6865473712655424	0.026174373137045924	0.3932948363047408	0.7845491814019779	0.01686686777414317	0.34007405060573753	0.793939527802291	-0.01490169431777071	0.3677105432238682	0.8138632067160636
393	6.55	0.25769386109418857	0.46545048742498596	0.7250998683481061	0.26731728064117805	0.5143696688046614	1.0990466243460555	0.2653479793418282	0.5795880969936041	1.512339408067847	0.2696500363728235	0.34531578294921156	1.493138469217947	0.32485181458354184	0.4177896334539822	1.5264106948911869	0.2592014953069186	0.6100035481221635	1.5616473025870987	0.038655778049360455	0.45567987859851655	0.7330066020644809	0.06756985379426696	0.4946578895667123	1.1016784537492068	0.10804971204080645	0.547380910366367	1.4979114671310847	0.1154598836618454	0.3981197742184233	1.5464381760488062	0.06276454850792659	0.40317672837754404	1.5197876022372727	0.11865795783363792	0.6071565092234747	1.565105371028347	0.10874545475113469	0.4606159714893037	0.0533671318491963	0.09604445829604014	0.49406495778185716	-0.18973564555645725	0.11047657327478358	0.36771140474814334	-0.10329665559190582	0.2945423178858994	0.46737941653839266	0.16255615559079833	0.34660274112554945	0.4594748250818033	0.4496096801927807	0.33298125808366785	0.3694140175786337	0.6889824191906857	0.24458511978681297	0.39385037838406073	0.8091284296520884	0.2815453153957093	0.3938930892786947	0.8267766555439355	0.3235137570892437	0.37729726193269997	0.8192498452412347	-0.03823390495578281	0.46082410002002683	0.1821980194489307	-0.0926331553738634	0.4250723028933613	0.4624522299992787	-0.034131744334400985	0.3530776657328162	0.6867274592650447	0.02610429764491406	0.39322442379344363	0.7844412768926935	0.016868791005950064	0.33998184477605653	0.7939420801433823	-0.014860103350015048	0.3676792432386537	0.8138884890666247
394	6.566666666666666	0.25769311106678244	0.46549922965061824	0.7250720498859953	0.2673400345841469	0.5143191119351014	1.0990249936641943	0.26533255238903064	0.5796021957428282	1.5123914914158423	0.2708638118839768	0.34972020062864967	1.495605108517073	0.32542152483647097	0.4189159634153533	1.529212352386021	0.25919155223035306	0.6100624709148872	1.561688936422557	0.03863668148216472	0.4557162127639012	0.7330231161032061	0.06747034941368694	0.4946359246853523	1.101715001075267	0.10795123183854377	0.547437012043146	1.4985214730959726	0.11525832926169864	0.3979068161437244	1.5475192474887074	0.06278351757561054	0.4031253148180671	1.5197827331581533	0.11851424721696094	0.6075340390477559	1.5653336215738956	0.1087485280661705	0.4606452570037205	0.05335301243693645	0.09602384451636405	0.4939502769630577	-0.18978596232659195	0.11040830355055845	0.36769063429387305	-0.10328705274349714	0.2945390407255561	0.46743355774669004	0.1625582584769244	0.3466084343757175	0.45948536461190936	0.4496277713800263	0.33327814416681617	0.3692691788651733	0.6883837933498891	0.24612086915642706	0.3939969433404731	0.8088161823504844	0.2826263721875593	0.39390782017709425	0.8267063392873989	0.3235170480157577	0.3773031060515377	0.819249902822466	-0.03824796499611288	0.4608656935758088	0.18220070514473322	-0.09266202976384855	0.4251331443907615	0.462380119927019	-0.03403298041455634	0.3529201995773203	0.6884043503861194	0.026079457033824575	0.3931780124062151	0.7844390947787894	0.016949689511865828	0.3398260752800751	0.7943326773491224	-0.014699191808723587	0.3673908734202413	0.8142124134708889
